#!OML:ASF X:\für Bonn\!DataBase\2005_08_11_Bastian_Final\c3d\Bastian.ASF
:FULLY-SPECIFIED
:DEGREES
123
root 0.728358 16.779 0.275124 172.758 -5.54478 -175.421
lowerback 21.5783 -0.80085 0.21724
upperback 6.57567 -2.16414 0.891965
thorax -4.84981 -1.57803 1.41995
lowerneck -13.0577 -2.86816 -3.82151
upperneck -4.72804 -4.17281 9.39709
head 1.06869 -2.23325 3.54628
rclavicle -2.20651e-014 8.74653e-015
rhumerus 85.0514 10.8471 41.0802
rradius 42.547
rwrist -84.0184
rhand -51.0898 -10.0797
rfingers 7.12502
rthumb -23.6348 -38.647
lclavicle -2.20651e-014 8.74653e-015
lhumerus 83.5281 -19.3492 -47.9492
lradius 33.7089
lwrist 42.4953
lhand -48.095 24.1681
lfingers 7.12502
lthumb -20.7597 53.0777
rfemur -14.5444 -4.15891 26.9036
rtibia 51.8336
rfoot -26.4458 -14.5414
rtoes -10.9373
lfemur -16.7643 0.960021 -15.2951
ltibia 53.3276
lfoot -24.7071 -2.13722
ltoes -12.5338
124
root 0.72185 16.9133 0.243394 172.77 -5.56628 -175.466
lowerback 20.9593 -0.849781 0.204304
upperback 6.54033 -2.20023 0.83801
thorax -4.57192 -1.58163 1.35392
lowerneck -12.9707 -2.76719 -3.79086
upperneck -4.50226 -4.03128 9.38582
head 1.11738 -2.14877 3.54518
rclavicle 2.47487e-014 -1.70955e-014
rhumerus 85.8513 11.7513 41.2913
rradius 42.4851
rwrist -83.7055
rhand -51.2003 -10.2577
rfingers 7.12502
rthumb -23.7407 -38.8112
lclavicle 2.47487e-014 -1.70955e-014
lhumerus 84.4588 -20.0065 -48.2134
lradius 33.6743
lwrist 42.5525
lhand -48.1955 24.0103
lfingers 7.12502
lthumb -20.8563 52.9093
rfemur -12.9218 -3.23772 27.0422
rtibia 49.179
rfoot -26.7125 -14.5198
rtoes -11.2661
lfemur -15.1472 0.755796 -15.5605
ltibia 50.8438
lfoot -24.5478 -2.9933
ltoes -12.2421
125
root 0.715832 17.0336 0.211567 172.783 -5.56099 -175.514
lowerback 20.3585 -0.887691 0.186565
upperback 6.48322 -2.21945 0.78085
thorax -4.32591 -1.57537 1.28449
lowerneck -12.8602 -2.67803 -3.71438
upperneck -4.25478 -3.90846 9.31765
head 1.16733 -2.0734 3.51431
rclavicle 1.11319e-014 -1.66979e-014
rhumerus 86.5868 12.6411 41.4626
rradius 42.4742
rwrist -83.4539
rhand -51.2446 -10.3843
rfingers 7.12502
rthumb -23.7832 -38.9323
lclavicle 1.11319e-014 -1.66979e-014
lhumerus 85.3675 -20.6736 -48.3751
lradius 33.5735
lwrist 42.2693
lhand -48.1079 23.968
lfingers 7.12502
lthumb -20.7721 52.8762
rfemur -11.4257 -2.16039 27.2263
rtibia 46.8141
rfoot -26.766 -14.5487
rtoes -11.2551
lfemur -13.5799 0.696349 -15.8307
ltibia 48.479
lfoot -24.3082 -3.68759
ltoes -13.5244
126
root 0.709157 17.1403 0.180323 172.808 -5.56337 -175.532
lowerback 19.7596 -0.939311 0.176843
upperback 6.42699 -2.25494 0.752554
thorax -4.07727 -1.57797 1.24512
lowerneck -12.8529 -3.53271 -3.49478
upperneck -3.81879 -3.58739 9.34009
head 1.29507 -1.22848 3.51314
rclavicle -2.97183e-014 1.59028e-014
rhumerus 87.309 13.4128 41.6999
rradius 42.4783
rwrist -83.3051
rhand -51.2287 -10.4501
rfingers 7.12502
rthumb -23.7679 -39.0002
lclavicle -2.97183e-014 1.59028e-014
lhumerus 86.1707 -21.3494 -48.3746
lradius 33.3922
lwrist 41.6987
lhand -47.8749 23.9444
lfingers 7.12502
lthumb -20.5482 52.877
rfemur -10.0903 -0.948126 27.4842
rtibia 44.771
rfoot -26.6571 -14.6602
rtoes -10.632
lfemur -12.0925 0.668239 -16.0692
ltibia 46.2452
lfoot -23.9909 -4.10337
ltoes -16.3466
127
root 0.702077 17.2323 0.150267 172.851 -5.53916 -175.535
lowerback 19.1564 -0.980903 0.190566
upperback 6.36307 -2.27204 0.721304
thorax -3.83453 -1.57091 1.18512
lowerneck -12.8553 -3.42082 -3.4158
upperneck -3.53874 -3.49206 9.24399
head 1.37643 -1.19016 3.4708
rclavicle -1.16289e-014 4.77083e-015
rhumerus 87.9422 14.1539 41.895
rradius 42.5297
rwrist -83.2013
rhand -51.1426 -10.5152
rfingers 7.12502
rthumb -23.6853 -39.076
lclavicle -1.16289e-014 4.77083e-015
lhumerus 86.9007 -21.9984 -48.2382
lradius 33.1258
lwrist 40.792
lhand -47.4262 23.8704
lfingers 7.12502
lthumb -20.117 52.8489
rfemur -8.90476 0.365313 27.7957
rtibia 43.0257
rfoot -26.2859 -14.8805
rtoes -9.21526
lfemur -10.7108 0.623951 -16.2998
ltibia 44.1987
lfoot -23.5177 -4.3439
ltoes -19.4582
128
root 0.694696 17.3091 0.121686 172.901 -5.49965 -175.494
lowerback 18.5332 -1.01977 0.251159
upperback 6.3246 -2.2825 0.702565
thorax -3.55404 -1.56284 1.10905
lowerneck -12.9649 -3.31688 -3.32052
upperneck -3.23561 -3.40547 9.12731
head 1.48423 -1.15205 3.41797
rclavicle 1.17283e-014 -7.15625e-015
rhumerus 88.4919 14.7766 42.1177
rradius 42.5809
rwrist -83.1398
rhand -51.0208 -10.5429
rfingers 7.12502
rthumb -23.5686 -39.1187
lclavicle 1.17283e-014 -7.15625e-015
lhumerus 87.494 -22.6162 -47.9335
lradius 32.8133
lwrist 39.5978
lhand -46.8699 23.8134
lfingers 7.12502
lthumb -19.5822 52.8472
rfemur -7.85091 1.72151 28.1784
rtibia 41.5577
rfoot -25.8001 -15.2117
rtoes -7.16458
lfemur -9.44132 0.520059 -16.4779
ltibia 42.3624
lfoot -22.8563 -4.55128
ltoes -22.0363
129
root 0.687315 17.3727 0.0929202 172.975 -5.42889 -175.455
lowerback 17.8546 -1.05352 0.319299
upperback 6.29191 -2.28614 0.677197
thorax -3.23777 -1.55101 1.01816
lowerneck -13.0881 -3.22608 -3.21354
upperneck -2.93673 -3.3363 9.00464
head 1.59412 -1.12209 3.36019
rclavicle 1.30204e-014 -3.18055e-015
rhumerus 88.9847 15.3164 42.3976
rradius 42.6824
rwrist -83.1506
rhand -50.8822 -10.5333
rfingers 7.12502
rthumb -23.4356 -39.1262
lclavicle 1.30204e-014 -3.18055e-015
lhumerus 88.0506 -23.1315 -47.8234
lradius 32.571
lwrist 38.5867
lhand -46.3068 23.7398
lfingers 7.12502
lthumb -19.0407 52.8278
rfemur -6.92687 3.11895 28.5746
rtibia 40.3533
rfoot -25.2934 -15.664
rtoes -4.84467
lfemur -8.29406 0.360816 -16.6527
ltibia 40.7416
lfoot -21.7364 -4.58288
ltoes -23.4068
130
root 0.679181 17.4241 0.0642568 173.094 -5.35943 -175.414
lowerback 17.0773 -1.08251 0.446643
upperback 6.296 -2.28021 0.625695
thorax -2.83252 -1.53495 0.86008
lowerneck -13.259 -3.16477 -3.0616
upperneck -2.69647 -3.29932 8.89014
head 1.69446 -1.10402 3.29483
rclavicle 2.28602e-015 1.19271e-015
rhumerus 89.3363 15.7909 42.6291
rradius 42.79
rwrist -83.1069
rhand -50.7682 -10.5899
rfingers 7.12502
rthumb -23.3262 -39.1966
lclavicle 2.28602e-015 1.19271e-015
lhumerus 88.5616 -23.4915 -47.8913
lradius 32.4176
lwrist 37.7652
lhand -45.818 23.6481
lfingers 7.12502
lthumb -18.5706 52.7817
rfemur -6.15147 4.4282 28.9605
rtibia 39.3897
rfoot -24.8422 -16.2515
rtoes -3.01344
lfemur -7.3022 0.0775504 -16.8217
ltibia 39.3268
lfoot -20.5692 -4.57431
ltoes -24.482
131
root 0.667961 17.4685 0.0405846 173.247 -5.17542 -175.357
lowerback 16.3372 -1.09006 0.594617
upperback 6.25817 -2.23898 0.594026
thorax -2.48961 -1.49854 0.708199
lowerneck -13.3611 -3.09684 -2.924
upperneck -2.46555 -3.25632 8.7262
head 1.77814 -1.08866 3.21549
rclavicle 1.03368e-014 1.59028e-015
rhumerus 89.6873 16.2529 42.8318
rradius 42.9048
rwrist -82.991
rhand -50.661 -10.6458
rfingers 7.12502
rthumb -23.2234 -39.2655
lclavicle 1.03368e-014 1.59028e-015
lhumerus 89.0343 -23.8675 -48.0572
lradius 32.3723
lwrist 37.1775
lhand -45.4746 23.6476
lfingers 7.12502
lthumb -18.2403 52.8124
rfemur -5.5388 5.5844 29.302
rtibia 38.65
rfoot -24.4935 -16.7664
rtoes -1.84791
lfemur -6.43287 -0.281819 -16.982
ltibia 38.0953
lfoot -19.4716 -4.45893
ltoes -25.0188
132
root 0.656119 17.5088 0.0192761 173.464 -4.96198 -175.26
lowerback 15.5764 -1.0916 0.780891
upperback 6.20189 -2.18324 0.574857
thorax -2.1541 -1.45262 0.546434
lowerneck -13.4928 -3.04249 -2.77386
upperneck -2.22648 -3.23289 8.5377
head 1.87026 -1.08298 3.12445
rclavicle -2.08724e-015 1.55052e-014
rhumerus 90.02 16.6883 43.0364
rradius 42.9944
rwrist -82.7727
rhand -50.5864 -10.8154
rfingers 7.12502
rthumb -23.1519 -39.4441
lclavicle -2.08724e-015 1.55052e-014
lhumerus 89.5121 -24.1638 -48.4978
lradius 32.4921
lwrist 37.0439
lhand -45.3914 23.6827
lfingers 7.12502
lthumb -18.1603 52.8549
rfemur -5.11936 6.32839 29.572
rtibia 38.0991
rfoot -24.1895 -17.1207
rtoes -1.4828
lfemur -5.74392 -0.616559 -17.089
ltibia 37.0428
lfoot -18.4954 -4.3045
ltoes -25.3679
133
root 0.646743 17.54 1.2585e-005 173.664 -4.85226 -175.157
lowerback 14.8779 -1.11229 0.939463
upperback 6.12868 -2.15784 0.567125
thorax -1.86605 -1.4214 0.42135
lowerneck -13.5261 -3.005 -2.56159
upperneck -2.06849 -3.23456 8.2751
head 1.91508 -1.09612 2.99393
rclavicle -2.78299e-015 -1.35174e-014
rhumerus 90.2977 17.1632 43.1754
rradius 43.0546
rwrist -82.5109
rhand -50.5002 -10.8604
rfingers 7.12502
rthumb -23.0691 -39.4995
lclavicle -2.78299e-015 -1.35174e-014
lhumerus 90.0499 -24.3644 -49.2324
lradius 32.808
lwrist 37.4313
lhand -45.5501 23.8203
lfingers 7.12502
lthumb -18.313 52.9783
rfemur -4.7448 6.53161 29.7415
rtibia 37.706
rfoot -24.0375 -17.276
rtoes -1.25884
lfemur -5.15341 -1.00037 -17.1743
ltibia 36.1595
lfoot -17.7751 -4.15429
ltoes -25.4165
134
root 0.637434 17.5617 -0.0163809 173.912 -4.75572 -175.038
lowerback 14.1478 -1.14399 1.12378
upperback 6.04857 -2.14521 0.548456
thorax -1.56797 -1.39482 0.272244
lowerneck -13.5196 -2.98445 -2.31954
upperneck -1.97632 -3.25525 7.99248
head 1.93029 -1.12017 2.84988
rclavicle -2.78299e-015 -1.70955e-014
rhumerus 90.5577 17.6375 43.2175
rradius 43.0822
rwrist -82.1888
rhand -50.4258 -10.9215
rfingers 7.12502
rthumb -22.9978 -39.5696
lclavicle -2.78299e-015 -1.70955e-014
lhumerus 90.5487 -24.5643 -49.9734
lradius 33.1949
lwrist 37.9932
lhand -45.8886 24.0743
lfingers 7.12502
lthumb -18.6385 53.2013
rfemur -4.51239 6.2655 29.8038
rtibia 37.4255
rfoot -23.9531 -17.1706
rtoes -1.4748
lfemur -4.72847 -1.30964 -17.2201
ltibia 35.455
lfoot -17.3968 -4.05203
ltoes -24.9922
